<?xml version="1.0" encoding="UTF-8" standalone="no"?>
<!DOCTYPE svg PUBLIC "-//W3C//DTD SVG 1.1//EN" "http://www.w3.org/Graphics/SVG/1.1/DTD/svg11.dtd">
<svg width="100%" height="100%" viewBox="0 0 130 130" version="1.1" xmlns="http://www.w3.org/2000/svg" xmlns:xlink="http://www.w3.org/1999/xlink" xml:space="preserve" xmlns:serif="http://www.serif.com/" style="fill-rule:evenodd;clip-rule:evenodd;stroke-linejoin:round;stroke-miterlimit:2;">
    <g transform="matrix(1,0,0,1,0,-7425)">
        <g id="Page-5" serif:id="Page 5" transform="matrix(4.166667,0,0,4.166667,0,7425)">
            <rect x="0" y="0" width="31" height="31" style="fill:none;"/>
            <g id="Webclip">
            </g>
            <g id="Favicon">
                <rect x="0" y="0" width="31" height="31"/>
                <g transform="matrix(1,0,0,1,21.157,26.5387)">
                    <path d="M0,-22.077C0.187,-22.077 0.343,-21.921 0.343,-21.703C0.343,-21.485 0.218,-21.392 0,-21.392C-0.249,-21.392 -0.529,-21.454 -1.028,-21.454C-1.899,-21.454 -2.18,-21.236 -2.211,-20.614L-2.211,-0.748L1.495,-0.748C6.695,-0.748 7.94,-2.46 8.158,-4.671C8.22,-5.387 8.22,-5.636 8.22,-5.948C8.22,-6.259 8.345,-6.446 8.563,-6.446C8.75,-6.446 8.874,-6.259 8.874,-5.917C8.874,-5.667 8.781,-5.325 8.719,-4.547L8.376,-0.903C8.345,-0.312 8.22,-0.125 7.535,-0.125L-4.546,-0.125C-5.605,-0.094 -6.57,0 -7.131,0C-7.38,0 -7.535,-0.063 -7.535,-0.312C-7.535,-0.53 -7.411,-0.623 -7.162,-0.623C-6.975,-0.623 -6.663,-0.561 -6.196,-0.561C-5.2,-0.561 -4.951,-0.81 -4.951,-1.62L-4.951,-22.077L0,-22.077Z" style="fill:rgb(0,47,167);fill-rule:nonzero;"/>
                </g>
                <g transform="matrix(1,0,0,1,16.2062,14.7687)">
                    <path d="M0,1.463L-2.584,1.463C-6.259,1.463 -8.158,-0.499 -8.158,-4.079C-8.158,-8.003 -6.197,-9.684 -2.366,-9.684L-0.934,-9.684C-0.218,-9.684 0,-9.435 0,-8.75L0,-10.307L-2.273,-10.307C-7.94,-10.307 -11.023,-8.47 -11.023,-3.955C-11.023,-0.094 -8.719,1.494 -5.262,1.93C-7.66,2.522 -8.968,3.954 -9.902,6.071C-11.459,9.652 -11.895,11.147 -13.421,11.147C-14.074,11.147 -14.355,10.867 -14.728,10.649C-14.946,10.524 -15.102,10.555 -15.195,10.711C-15.289,10.867 -15.227,11.022 -15.009,11.178C-14.51,11.52 -13.639,11.77 -12.299,11.77C-9.933,11.77 -8.781,10.462 -7.193,6.881C-6.041,4.328 -4.764,2.21 -1.681,2.086L0,2.086L0,1.463Z" style="fill:white;fill-rule:nonzero;"/>
                </g>
            </g>
            <g id="Banner">
            </g>
            <g id="Design">
            </g>
            <g id="Black-BG" serif:id="Black BG">
            </g>
            <g id="White-BG" serif:id="White BG">
            </g>
        </g>
    </g>
</svg>
